<?xml version="1.0" encoding="iso-8859-1"?>
<!-- Uploaded to: SVG Repo, www.svgrepo.com, Generator: SVG Repo Mixer Tools -->
<svg height="800px" width="800px" version="1.1" id="Layer_1" xmlns="http://www.w3.org/2000/svg" xmlns:xlink="http://www.w3.org/1999/xlink" 
	 viewBox="0 0 285.186 285.186" xml:space="preserve">
<g>
	<path style="fill:#F38181;" d="M134.58,240.019L77.762,269.89c-12.629,6.64-27.39-4.085-24.978-18.148l10.851-63.268
		c0.958-5.585-0.894-11.283-4.951-15.238l-45.967-44.807c-10.217-9.96-4.579-27.312,9.541-29.364l63.525-9.231
		c5.607-0.815,10.454-4.336,12.962-9.417l28.409-57.563c6.315-12.795,24.56-12.795,30.875,0l28.409,57.563
		c2.507,5.081,7.355,8.603,12.962,9.417l63.525,9.231c14.12,2.052,19.758,19.404,9.541,29.364l-45.967,44.807
		c-4.057,3.955-5.909,9.653-4.951,15.238l10.851,63.268c2.412,14.063-12.349,24.787-24.978,18.148l-56.818-29.871
		C145.586,237.383,139.595,237.383,134.58,240.019z"/>
	<g>
		<path style="fill:#414042;" d="M277.7,133.801c14.664-14.293,6.561-39.213-13.698-42.156l-63.523-9.23
			c-3.165-0.46-5.9-2.447-7.315-5.315l-28.409-57.563c-9.064-18.364-35.266-18.356-44.326,0L92.018,77.099
			c-1.415,2.868-4.15,4.855-7.314,5.315l-63.524,9.23c-9.379,1.363-17.024,7.808-19.952,16.821
			c-2.929,9.013-0.532,18.721,6.254,25.335l45.967,44.807c2.291,2.232,3.335,5.447,2.795,8.599l-10.851,63.268
			c-3.463,20.181,17.733,35.578,35.86,26.055l56.818-29.872c2.83-1.488,6.211-1.488,9.041,0l56.818,29.872
			c18.101,9.516,39.322-5.879,35.86-26.055l-10.852-63.268c-0.54-3.152,0.504-6.367,2.795-8.599L277.7,133.801z M214.155,189.743
			l10.852,63.268c1.362,7.948-6.95,13.999-14.097,10.241c-61.957-32.573-60.186-32.711-68.319-32.711
			c-8.178,0-6.94,0.442-68.319,32.711c-7.141,3.754-15.46-2.286-14.097-10.241l10.851-63.268c1.376-8.019-1.281-16.197-7.107-21.877
			l-45.967-44.807c-5.773-5.627-2.609-15.41,5.384-16.571l63.525-9.23c8.051-1.17,15.008-6.224,18.608-13.52l28.409-57.563
			c3.568-7.229,13.849-7.242,17.424,0l28.409,57.563c3.601,7.296,10.558,12.35,18.609,13.52l63.524,9.23
			c7.978,1.16,11.167,10.934,5.384,16.571l-45.967,44.807C215.436,173.545,212.779,181.724,214.155,189.743z"/>
		<path style="fill:#414042;" d="M250.851,119.221c-0.882-2.715-3.229-4.694-6.055-5.104l-47.913-6.962
			c-11.31-1.643-21.081-8.742-26.139-18.991l-21.429-43.418c-2.746-5.564-10.704-5.565-13.451,0l-21.429,43.419
			c-5.058,10.248-14.829,17.347-26.138,18.99l-47.914,6.962c-6.139,0.891-8.602,8.459-4.157,12.793l34.671,33.795
			c8.185,7.977,11.917,19.464,9.985,30.728l-8.186,47.722c-1.05,6.113,5.392,10.791,10.882,7.907l42.855-22.531
			c4.963-2.609,10.549-3.988,16.155-3.988s11.192,1.379,16.154,3.988l42.856,22.531c5.492,2.885,11.933-1.789,10.882-7.906
			l-8.185-47.722c-1.933-11.264,1.8-22.751,9.984-30.727l34.671-33.797C250.998,124.917,251.733,121.936,250.851,119.221z
			 M203.813,149.964c-11.722,11.423-17.066,27.874-14.298,44.005l5.615,32.743l-29.405-15.46c-7.107-3.736-15.107-5.71-23.135-5.71
			c-8.029,0-16.029,1.975-23.136,5.711L90.05,226.712l5.616-32.744c2.768-16.131-2.578-32.583-14.299-44.006l-23.788-23.188
			l32.875-4.777c16.196-2.353,30.189-12.519,37.433-27.196l14.703-29.792L157.293,94.8c7.243,14.677,21.236,24.844,37.434,27.197
			l32.874,4.777L203.813,149.964z"/>
		<path style="fill:#414042;" d="M142.591,122.35c-14.061,0-25.499,11.439-25.499,25.5c0,14.06,11.438,25.499,25.499,25.499
			s25.499-11.439,25.499-25.499C168.09,133.789,156.651,122.35,142.591,122.35z M142.591,158.348
			c-5.789,0-10.499-4.71-10.499-10.499c0-5.79,4.71-10.5,10.499-10.5c5.789,0,10.499,4.71,10.499,10.5
			C153.09,153.638,148.38,158.348,142.591,158.348z"/>
	</g>
</g>
</svg>